<svg version="1.1" viewBox="0 0 365 225" xml:space="preserve" xmlns="http://www.w3.org/2000/svg"><path d="m365 31.48v162c0 17.38-14.16 31.48-31.6 31.48h-301.8c-17.45 0-31.6-14.1-31.6-31.48v-162c0-17.38 14.16-31.48 31.6-31.48h301.8c17.35-.09929 31.6 14.1 31.6 31.48z" fill="#666"/><path d="m63.65 26.25c.4 1.9.5996 3.9.5996 5.9 0 17.7-14.4 32.1-32.1 32.1-1.9 0-3.802-.2-5.602-.5v97.5c1.8-.3 3.702-.5 5.602-.5 17.7 0 32.1 14.4 32.1 32.1 0 2-.1996 3.998-.5996 5.898h234.9c-.2-1.3-.2988-2.6-.2988-4 0-17.7 14.4-32.1 32.1-32.1 2.7 0 5.4.4 7.9 1v-98.46c-2.446.5744-5.071.9629-7.701.9629-17.7 0-32.1-14.4-32.1-32.1 0-2.7.3-5.301 1-7.801h-235.8zm274.6 38.94c.0645-.0152.135-.02171.1992-.03711h-.1992v.03711zm-155.8-30.22c42.84-.1116 77.53 34.69 77.53 77.53 0 42.84-34.69 77.53-77.53 77.53s-77.53-34.69-77.53-77.53c0-42.84 34.69-77.53 77.53-77.53zm-16.69 53.66v3.426c-2.911.366-5.186 1.491-6.824 3.373-1.621 1.882-2.432 4.304-2.432 7.268 0 2.841.8543 5.299 2.562 7.373s4.243 3.721 7.607 4.941v9.91c-1.203-.2614-2.091-.8197-2.666-1.674-.5752-.8715-.8633-2.101-.8633-3.688 0-.08715.00796-.2262.02539-.418.01743-.2092.02734-.3741.02734-.4961h-7.32v.1836c0 3.748.8364 6.674 2.51 8.783 1.691 2.092 4.148 3.286 7.373 3.582v5.178h4.941v-5.178c3.329-.4009 5.847-1.541 7.555-3.424 1.708-1.9 2.562-4.489 2.562-7.766 0-3.12-.8364-5.657-2.51-7.609s-4.497-3.669-8.471-5.15v-8.994h.1055c1.011 0 1.778.4013 2.301 1.203.5403.7844.8622 2.014.9668 3.687h7.164c-.06973-3.329-.924-5.928-2.562-7.793-1.621-1.882-3.991-2.997-7.111-3.346v-3.373h-4.941zm20.89 3.033-.7324 21.86h7.477c.2963-.9587.7155-1.674 1.256-2.145.5578-.4706 1.245-.7051 2.064-.7051 1.377 0 2.327.5484 2.85 1.646.5403 1.098.8106 3.303.8106 6.615 0 2.301-.2603 3.94-.7832 4.916-.5229.9587-1.385 1.438-2.588 1.438-1.15 0-1.971-.453-2.459-1.359s-.7662-2.502-.8359-4.785h-8.34v.7578c0 4.044 1.001 7.147 3.006 9.309 2.022 2.144 4.933 3.217 8.732 3.217 3.957 0 6.929-1.222 8.916-3.662 2.004-2.44 3.006-6.092 3.006-10.96 0-4.619-.7391-8.06-2.221-10.33-1.482-2.266-3.756-3.398-6.824-3.398-1.203 0-2.363.1828-3.479.5488-1.098.3486-2.187.8791-3.268 1.594l.2871-7.32h13.91v-7.242h-20.79zm-105.3 1.539c10.6 0 19.3 8.601 19.3 19.3s-8.703 19.3-19.3 19.3c-10.7 0-19.3-8.699-19.3-19.3 0-10.7 8.699-19.3 19.3-19.3zm202.2 0c10.6 0 19.3 8.601 19.3 19.3s-8.701 19.3-19.3 19.3c-10.7 0-19.3-8.699-19.3-19.3 0-10.7 8.699-19.3 19.3-19.3zm-116.6 4.998v7.713c-1.028-.488-1.821-1.082-2.379-1.779-.5403-.7146-.8106-1.482-.8106-2.301 0-.9935.2702-1.794.8106-2.404.5578-.6275 1.351-1.037 2.379-1.229zm2.799 17.99c1.238.5578 2.126 1.178 2.666 1.857.5403.6624.8106 1.473.8106 2.432 0 1.22-.296 2.196-.8887 2.928-.5752.7321-1.437 1.221-2.588 1.465v-8.682z" fill="#e9ddaf"/></svg>
