<svg version="1.1" viewBox="0 0 365 225" xml:space="preserve" xmlns="http://www.w3.org/2000/svg"><path d="m365 31.48v162c0 17.38-14.16 31.48-31.6 31.48h-301.8c-17.45 0-31.6-14.1-31.6-31.48v-162c0-17.38 14.16-31.48 31.6-31.48h301.8c17.35-.09929 31.6 14.1 31.6 31.48z" fill="#ff7f2a"/><path d="m63.65 26.25c.4 1.9.5996 3.9.5996 5.9 0 17.7-14.4 32.1-32.1 32.1-1.9 0-3.802-.2-5.602-.5v97.5c1.8-.3 3.702-.5 5.602-.5 17.7 0 32.1 14.4 32.1 32.1 0 2-.1996 3.998-.5996 5.898h234.9c-.2-1.3-.2988-2.6-.2988-4 0-17.7 14.4-32.1 32.1-32.1 2.7 0 5.4.4 7.9 1v-98.46c-2.446.5744-5.071.9629-7.701.9629-17.7 0-32.1-14.4-32.1-32.1 0-2.7.3-5.301 1-7.801h-235.8zm274.6 38.94c.0645-.0152.135-.02171.1992-.03711h-.1992v.03711zm-155.8-30.22c42.84-.1116 77.53 34.69 77.53 77.53 0 42.84-34.69 77.53-77.53 77.53s-77.53-34.69-77.53-77.53c0-42.84 34.69-77.53 77.53-77.53zm-45.6 53.66v3.426c-2.911.366-5.186 1.491-6.824 3.373-1.621 1.882-2.432 4.304-2.432 7.268 0 2.841.8543 5.299 2.562 7.373 1.708 2.074 4.243 3.721 7.607 4.941v9.91c-1.203-.2614-2.091-.8197-2.666-1.674-.5752-.8715-.8633-2.101-.8633-3.688 0-.08715.00991-.2262.02734-.418.01743-.2092.02539-.3741.02539-.4961h-7.32v.1836c0 3.748.8364 6.674 2.51 8.783 1.691 2.092 4.148 3.286 7.373 3.582v5.178h4.941v-5.178c3.329-.4009 5.848-1.541 7.557-3.424 1.708-1.9 2.562-4.489 2.562-7.766 0-3.12-.8384-5.657-2.512-7.609s-4.497-3.669-8.471-5.15v-8.994h.1055c1.011 0 1.778.4013 2.301 1.203.5403.7844.8622 2.014.9668 3.687h7.164c-.06972-3.329-.924-5.928-2.562-7.793-1.621-1.882-3.991-2.997-7.111-3.346v-3.373h-4.941zm31.4 2.354c-.5752 2.196-1.726 3.843-3.451 4.941-1.726 1.098-4.034 1.646-6.928 1.646h-.4453v6.145h8.027v27.79h8.994v-40.53h-6.197zm28.76 0c-2.283 0-4.304.4172-6.064 1.254-1.76.8367-3.147 2.041-4.158 3.609-.7321 1.133-1.247 2.798-1.543 4.994-.2963 2.179-.4434 5.777-.4434 10.8 0 4.828.1391 8.367.418 10.62.2789 2.249.7498 3.906 1.412 4.969 1.011 1.656 2.406 2.92 4.184 3.791 1.795.8715 3.86 1.307 6.195 1.307 2.841 0 5.291-.6616 7.348-1.986 2.074-1.325 3.372-3.059 3.895-5.203.3486-1.394.593-3.183.7324-5.361.1569-2.196.2363-5.49.2363-9.883 0-4.044-.157-7.094-.4707-9.15-.2963-2.074-.8029-3.686-1.518-4.836-.9935-1.586-2.37-2.798-4.131-3.635-1.76-.8541-3.791-1.281-6.092-1.281zm28.71 0c-2.283 0-4.306.4172-6.066 1.254-1.76.8367-3.145 2.041-4.156 3.609-.7321 1.133-1.247 2.798-1.543 4.994-.2963 2.179-.4453 5.777-.4453 10.8 0 4.828.1391 8.367.418 10.62.2789 2.249.7498 3.906 1.412 4.969 1.011 1.656 2.406 2.92 4.184 3.791 1.795.8715 3.862 1.307 6.197 1.307 2.841 0 5.289-.6616 7.346-1.986 2.074-1.325 3.374-3.059 3.896-5.203.3486-1.394.593-3.183.7324-5.361.1569-2.196.2344-5.49.2344-9.883 0-4.044-.157-7.094-.4707-9.15-.2963-2.074-.801-3.686-1.516-4.836-.9935-1.586-2.37-2.798-4.131-3.635-1.76-.8541-3.791-1.281-6.092-1.281zm-144.4 2.219c10.6 0 19.3 8.601 19.3 19.3s-8.703 19.3-19.3 19.3c-10.7 0-19.3-8.699-19.3-19.3 0-10.7 8.699-19.3 19.3-19.3zm202.2 0c10.6 0 19.3 8.601 19.3 19.3s-8.701 19.3-19.3 19.3c-10.7 0-19.3-8.699-19.3-19.3 0-10.7 8.699-19.3 19.3-19.3zm-86.49 4.893c1.203 0 2.031.5841 2.484 1.752.4532 1.168.6797 3.904.6797 8.209v3.582 2.955c0 4.602-.2265 7.512-.6797 8.732-.4532 1.203-1.282 1.805-2.484 1.805-1.22 0-2.057-.602-2.51-1.805-.4358-1.22-.6523-4.131-.6523-8.732v-2.955-2.928c0-4.654.2166-7.582.6523-8.785.4532-1.22 1.29-1.83 2.51-1.83zm28.71 0c1.203 0 2.029.5841 2.482 1.752.4532 1.168.6797 3.904.6797 8.209v3.582 2.955c0 4.602-.2265 7.512-.6797 8.732-.4532 1.203-1.28 1.805-2.482 1.805-1.22 0-2.057-.602-2.51-1.805-.4358-1.22-.6543-4.131-.6543-8.732v-2.955-2.928c0-4.654.2185-7.582.6543-8.785.4532-1.22 1.29-1.83 2.51-1.83zm-87.74.1055v7.713c-1.028-.488-1.823-1.082-2.381-1.779-.5403-.7146-.8105-1.482-.8105-2.301 0-.9935.2702-1.794.8105-2.404.5578-.6275 1.352-1.037 2.381-1.229zm2.797 17.99c1.238.5578 2.126 1.178 2.666 1.857.5403.6624.8106 1.473.8106 2.432 0 1.22-.296 2.196-.8887 2.928-.5752.7321-1.437 1.221-2.588 1.465v-8.682z" fill="#e9ddaf"/></svg>
