<svg width="600" height="740" version="1.1" viewBox="-89 -222 600 740" xmlns="http://www.w3.org/2000/svg"><g transform="translate(4.274 1.478)"><path d="m259.9-186v25.58h2.064v-25.58z" color="#000000" fill="#007046" style="-inkscape-stroke:none"/><path d="m203.8-221h114.3l22.86 17.5-22.86 17.5h-114.3l-22.86-17.5z" fill="#ffbb3d" stroke="#ffa500" stroke-width="2.083"/><text x="260.90372" y="-198.45848" fill="#000000" font-family="sans-serif" font-size="12.8px" text-anchor="middle"><tspan x="260.90372" y="-198.45848">for d of caja</tspan></text><path d="m340.9-203.5 6.666 14.74 1.462-6.572c100.7 86.35 156.3 214 151 346.6-5.354 133.2-71.66 256.5-179.8 334.4l1.219 1.692c108.6-78.28 175.2-202.2 180.6-336 5.359-133.3-50.65-261.6-151.9-348.4l6.479-2.933-15.8-3.509z" color="#000000" fill="#007046" stroke-width=".9999" style="-inkscape-stroke:none"/><ellipse cx="260.9" cy="486.5" rx="60" ry="27.46" fill="#ffd100" stroke="#000" stroke-width="2.083"/><text x="260.90372" y="491.30652" fill="#000000" font-family="sans-serif" font-size="12.8px" text-anchor="middle"><tspan x="260.90372" y="491.30652">ciclo</tspan></text><path d="m261.2 38.02v42.51h2.33v-42.51z" color="#000000" fill="#007046" style="-inkscape-stroke:none"/><rect x="160.9" y="-.9585" width="200" height="40" fill="#57acff" stroke="#1e90ff" stroke-width="2.083"/><text x="260.90372" y="23.841501" fill="#000000" font-family="sans-serif" font-size="12.8px" text-anchor="middle"><tspan x="260.90372" y="23.841501">div = floor(dinero/b.valor)</tspan></text><polyline transform="translate(120.9 -.9585)" points="60 -129.4 60 -129.6 -80 -129.6 -80 -69.74" fill="none" stroke="#007046" stroke-width="2"/><path d="m341.8-130.3v70.41h-49.07l3.119-6.234-14.47 7.234 14.47 7.234-3.119-6.234h51.07v-72.44h-2.001z" color="#000000" fill="#007046" stroke-width=".9999" style="-inkscape-stroke:none"/><polygon transform="translate(120.9 -.9585)" points="140 -160 220 -129.4 140 -98.82 60 -129.4" fill="#90ee90" stroke="#0f0" stroke-width="2.083"/><text x="260.90372" y="-125.5685" fill="#000000" font-family="sans-serif" font-size="12.8px" text-anchor="middle"><tspan x="260.90372" y="-125.5685">dinero &gt; 0</tspan></text><path d="m33.66-75.43 7.236 14.47 7.236-14.47-7.236 3.619z" color="#000000" fill="#007046" style="-inkscape-stroke:none"/><text x="32.616024" y="-46.924099" fill="#007046" font-family="sans-serif" font-size="12.8px"><tspan x="32.616024" y="-46.924099" fill="#007046">NO</tspan></text><path d="m39.9-40.93v471h209.7l-3.119 6.234 14.47-7.234-14.47-7.239 3.119 6.234h-207.6v-469h-2z" color="#000000" fill="#007046" stroke-width=".9999" style="-inkscape-stroke:none"/><text x="255.47572" y="-55.947994" fill="#007046" font-family="sans-serif" font-size="12.8px"><tspan x="255.47572" y="-55.947994" fill="#007046">SI</tspan></text><path d="m259.9-40.93v28.64l-6.239-3.119 7.239 14.47 7.234-14.47-6.234 3.119v-28.64z" color="#000000" fill="#007046" stroke-width=".9999" style="-inkscape-stroke:none"/><path d="m363.7 118-.9999 2h17.23v27.68l-6.234-3.119 7.239 14.47 7.234-14.47-6.234 3.119v-29.68z" color="#000000" fill="#007046" stroke-width=".9999" style="-inkscape-stroke:none"/><path d="m139.9 118.1v29.65l-6.234-3.119 7.234 14.47 7.239-14.47-6.234 3.119v-27.65h20l-.9999-2z" color="#000000" fill="#007046" stroke-width=".9999" style="-inkscape-stroke:none"/><polygon transform="matrix(1.256 0 0 1.256 86.42 281.5)" points="140 -98.82 60 -129.4 140 -160 220 -129.4" fill="#90ee90" stroke="#0f0" stroke-width="2.083"/><text x="262.28772" y="123.8125" fill="#000000" font-family="sans-serif" font-size="12.8px" text-anchor="middle"><tspan x="262.28772" y="123.8125">div &gt;b.cantidad</tspan></text><text x="132.65073" y="174.45651" fill="#007046" font-family="sans-serif" font-size="12.8px"><tspan x="132.65073" y="174.45651" fill="#007046">SI</tspan></text><path d="m139.9 179.1v27.65l-6.239-3.12 7.234 14.47 7.239-14.47-6.234 3.119v-27.65h-2z" color="#000000" fill="#007046" stroke-width=".9999" style="-inkscape-stroke:none"/><text x="374.0097" y="175.10551" fill="#007046" font-family="sans-serif" font-size="12.8px"><tspan x="374.0097" y="175.10551" fill="#007046">NO</tspan></text><path d="m379.9 179.1v27.65l-6.239-3.119 7.239 14.47 7.234-14.47-6.234 3.119v-27.65z" color="#000000" fill="#007046" stroke-width=".9999" style="-inkscape-stroke:none"/><path d="m259.9 338.9v8.645l-6.239-3.119 7.239 14.47 7.234-14.47-6.234 3.119v-8.645z" color="#000000" fill="#007046" stroke-width=".9999" style="-inkscape-stroke:none"/><rect x="126.4" y="298.9" width="269" height="40.18" fill="#57acff" stroke="#1e90ff" stroke-width="2.421"/><text x="260.90372" y="323.84149" fill="#000000" font-family="sans-serif" font-size="12.8px" text-anchor="middle"><tspan x="260.90372" y="323.84149">e.push(new Billete (b.valor, papeles))</tspan></text><path d="m139.9 259.1v21h120v7.645l-6.234-3.119 7.239 14.47 7.234-14.47-6.234 3.119v-7.645h120v-21h-2.001v19h-238v-19h-2.001z" color="#000000" fill="#007046" stroke-width=".9999" style="-inkscape-stroke:none"/><rect x="57.73" y="219" width="166.4" height="40.18" fill="#57acff" stroke="#1e90ff" stroke-width="1.904"/><text x="140.90372" y="243.84152" fill="#000000" font-family="sans-serif" font-size="12.8px" text-anchor="middle"><tspan x="140.90372" y="243.84152">papeles = b.cantidad</tspan></text><rect x="298.1" y="219" width="166.4" height="40.18" fill="#57acff" stroke="#1e90ff" stroke-width="1.904"/><text x="380.90372" y="243.84152" fill="#000000" font-family="sans-serif" font-size="12.8px" text-anchor="middle"><tspan x="380.90372" y="243.84152">papeles = div</tspan></text><path d="m259.9 398.8v48.65l-6.239-3.119 7.239 14.47 7.234-14.47-6.234 3.119v-48.65z" color="#000000" fill="#007046" stroke-width=".9999" style="-inkscape-stroke:none"/><rect x="136.7" y="358.9" width="248.5" height="40.18" fill="#57acff" stroke="#1e90ff" stroke-width="2.327"/><text x="260.90372" y="383.84149" fill="#000000" font-family="sans-serif" font-size="12.8px" text-anchor="middle"><tspan x="260.90372" y="383.84149">dinero = dinero - (b.valor*papeles)</tspan></text><path d="m-17.06-221v1.977h-70.96v71.15h116.4v-65.22h7.906v-7.906z" fill="#dedede" stroke-width=".9883"/><text x="-29.803566" y="-199.2699" fill="#000000" font-family="sans-serif" font-size="15.81px" font-weight="700" stroke-width=".9883" text-anchor="middle">Billete</text><text x="-85.046944" y="-178.31891" fill="#000000" font-family="monospace" font-size="12.65px" stroke-width=".9883">+valor: int</text><text x="-85.046944" y="-162.50687" fill="#000000" font-family="monospace" font-size="12.65px" stroke-width=".9883">+cantidad: int</text><path d="m-88.01-138v124.5h80.34v-106.7h-50.7v-17.79z" fill="#fff" stroke-width=".9883"/><path d="m-18.04-222v1.977h-70.96v73.13h118.4v-66.21h-1.977v20.75h-114.4v-25.69h68.98v.9888h1.977v-2.965h4.942v-1.977zm12.85 0v1.977h5.93v-1.977zm11.86 0v1.977h5.93v-1.977zm11.86 0v1.977h5.93v-1.977zm11.86 0v1.977h5.93v-1.977zm4.941 6.918v.9878h-2.964v1.977h4.941v-2.964zm-50.4.9878v1.977h5.93v-1.977zm11.86 0v1.977h5.93v-1.977zm11.86 0v1.977h5.93v-1.977zm11.86 0v1.977h5.93v-1.977zm-107.5 23.72h114.4v33.6h-114.4zm0 35.58h114.4v5.93h-114.4z" color="#000000" fill="#ca7efb" stroke-width=".9883" style="-inkscape-stroke:none"/><path d="m-89-139v126.5h82.32v-108.7h-50.7v-17.79zm1.977 1.977h27.67v15.81h-27.67zm0 17.79h78.37v104.8h-78.37z" color="#000000" stroke-width=".9883" style="-inkscape-stroke:none"/><text x="-82.082191" y="-103.75515" fill="#000000" font-family="monospace" font-size="12.65px" stroke-width=".9883"><tspan x="-82.082191" y="-103.75515">caja = []</tspan><tspan x="-82.082191" y="-87.943077">0 100:10</tspan><tspan x="-82.082191" y="-72.131004">1 50:20</tspan><tspan x="-82.082191" y="-56.318928">2 20:30</tspan><tspan x="-82.082191" y="-40.506855">3 10:0</tspan><tspan x="-82.082191" y="-24.694845">4 5:30</tspan></text></g></svg>
